<svg width="19" height="18" viewBox="0 0 19 18" fill="none" xmlns="http://www.w3.org/2000/svg">
<path d="M19 8.99996C19 10.7578 18.4853 12.4772 17.5193 13.9459C16.5533 15.4146 15.1783 16.5682 13.5642 17.2644C11.95 17.9605 10.1673 18.1687 8.43619 17.8633C6.70505 17.5578 5.10126 16.7521 3.82281 15.5456C3.75116 15.4779 3.69355 15.3967 3.65326 15.3067C3.61298 15.2167 3.59081 15.1197 3.58802 15.0212C3.58524 14.9226 3.60189 14.8245 3.63702 14.7324C3.67216 14.6403 3.7251 14.556 3.79281 14.4843C3.92957 14.3396 4.1182 14.2552 4.31722 14.2495C4.41577 14.2468 4.5139 14.2634 4.60601 14.2985C4.69812 14.3337 4.78241 14.3866 4.85406 14.4543C5.92632 15.4659 7.2729 16.1391 8.72556 16.3897C10.1782 16.6404 11.6725 16.4574 13.0218 15.8636C14.371 15.2698 15.5153 14.2916 16.3118 13.0512C17.1083 11.8107 17.5215 10.3631 17.5 8.88913C17.4784 7.41517 17.0229 5.98025 16.1905 4.76367C15.358 3.54708 14.1855 2.60279 12.8195 2.04877C11.4535 1.49474 9.95443 1.35557 8.50974 1.64863C7.06504 1.94169 5.73875 2.65399 4.69656 3.69652C4.36563 4.03121 4.05438 4.36027 3.75156 4.68746L5.28063 6.21933C5.38563 6.32422 5.45716 6.45791 5.48615 6.60348C5.51514 6.74904 5.50028 6.89993 5.44347 7.03705C5.38665 7.17417 5.29043 7.29135 5.16699 7.37375C5.04354 7.45615 4.89842 7.50007 4.75 7.49996H1C0.801088 7.49996 0.610322 7.42094 0.46967 7.28029C0.329018 7.13964 0.25 6.94887 0.25 6.74996V2.99996C0.249883 2.85154 0.293807 2.70642 0.37621 2.58297C0.458613 2.45953 0.57579 2.36331 0.712908 2.30649C0.850025 2.24968 1.00092 2.23482 1.14648 2.26381C1.29204 2.2928 1.42573 2.36432 1.53063 2.46933L2.6875 3.62808C2.98938 3.3009 3.30063 2.97183 3.63063 2.63902C4.88883 1.37867 6.49267 0.519933 8.23914 0.171501C9.98561 -0.176932 11.7962 0.000604421 13.4417 0.68164C15.0872 1.36267 16.4937 2.51659 17.4832 3.99733C18.4726 5.47807 19.0005 7.21907 19 8.99996ZM10 3.74996C9.80109 3.74996 9.61032 3.82898 9.46967 3.96963C9.32902 4.11028 9.25 4.30105 9.25 4.49996V8.99996C9.24996 9.12944 9.28344 9.25672 9.34718 9.36942C9.41093 9.48212 9.50276 9.5764 9.61375 9.64308L13.3638 11.8931C13.4482 11.9438 13.5418 11.9774 13.6393 11.9919C13.7367 12.0065 13.8361 12.0017 13.9316 11.9778C14.0272 11.954 14.1172 11.9115 14.1964 11.8529C14.2755 11.7943 14.3424 11.7207 14.3931 11.6362C14.4438 11.5518 14.4774 11.4581 14.492 11.3607C14.5065 11.2633 14.5017 11.1639 14.4779 11.0683C14.454 10.9727 14.4116 10.8828 14.353 10.8036C14.2943 10.7244 14.2207 10.6576 14.1362 10.6068L10.75 8.57527V4.49996C10.75 4.30105 10.671 4.11028 10.5303 3.96963C10.3897 3.82898 10.1989 3.74996 10 3.74996Z" fill="white"/>
</svg>
